<svg xmlns="http://www.w3.org/2000/svg" viewBox="0 0 164.78 34"><defs><style>.cls-1{fill:none;}.cls-2{isolation:isolate;}.cls-3,.cls-7{fill:#5d0200;}.cls-4{clip-path:url(#clip-path);}.cls-5,.cls-8{fill:#ff7524;}.cls-6{fill:#f42d00;}.cls-7,.cls-8{mix-blend-mode:screen;}.cls-8{opacity:0.28;}.cls-9{fill:#fff;}.cls-10{font-size:27.25px;fill:#b30000;font-family:AA_American_Captain, AA American Captain;letter-spacing:0.07em;}</style><clipPath id="clip-path"><ellipse class="cls-1" cx="17.52" cy="17.03" rx="17.23" ry="16.93"/></clipPath></defs><g class="cls-2"><g><ellipse class="cls-3" cx="17.52" cy="17.03" rx="17.23" ry="16.93"/><g class="cls-4"><path class="cls-5" d="M29.94,10.24a6.25,6.25,0,0,0-1.66.26,4.76,4.76,0,0,0-2.53,1.85l-.6,1.15a5.43,5.43,0,0,0,3.38.94,4.49,4.49,0,0,0,1.86-.54,3.34,3.34,0,0,0,1.34-1.37,5.13,5.13,0,0,0,.39-1.1,9.53,9.53,0,0,0,.2-1A10.55,10.55,0,0,0,29.94,10.24Z"/><path class="cls-6" d="M27.15,13.75a8,8,0,0,0,1.18-.82,5.58,5.58,0,0,0,1-1.16,7.43,7.43,0,0,0,.78-1.54h-.18a6.25,6.25,0,0,0-1.66.26,4.76,4.76,0,0,0-2.53,1.85l-.6,1.15a5.14,5.14,0,0,0,1.24.62A4.44,4.44,0,0,0,27.15,13.75Z"/><path class="cls-5" d="M25.41,7.71a6.82,6.82,0,0,0-.78,1.49,4.83,4.83,0,0,0,0,3.14l.56,1.16A5.42,5.42,0,0,0,28,11.33a4.32,4.32,0,0,0,.67-1.8,3.35,3.35,0,0,0-.3-1.9,5.19,5.19,0,0,0-.66-1,7.53,7.53,0,0,0-.72-.77A11.1,11.1,0,0,0,25.41,7.71Z"/><path class="cls-6" d="M27.21,11a5,5,0,0,0-.92-1.32A2.88,2.88,0,0,0,25,8.87a1.83,1.83,0,0,0-.25-.06l-.15.39a4.83,4.83,0,0,0,0,3.14l.56,1.16a5.44,5.44,0,0,0,2.37-1.63A5.74,5.74,0,0,0,27.21,11Z"/><polygon class="cls-3" points="28.86 24.07 28.85 24.08 28.86 24.07 28.86 24.07"/><path class="cls-3" d="M30.53,25.9l0,0h0l0,0h0l-3.25,2.93-1.67-1.83.4-.36.2-.18,2.67-2.41h0l0,0h0c.28-.19.84,0,1.28.51l0,.05a1.67,1.67,0,0,1,.33.5A.76.76,0,0,1,30.53,25.9Z"/><path class="cls-7" d="M30.53,25.27a.38.38,0,0,1-.1.24,0,0,0,0,1,0,0v0h0L28,27.68a1.23,1.23,0,0,1-1.74-.09,1.14,1.14,0,0,1-.25-.42.47.47,0,0,1,.13-.51h0l2.66-2.41h0l0,0h0c.28-.2.83,0,1.27.5l0,.05A2.16,2.16,0,0,1,30.53,25.27Z"/><path class="cls-7" d="M30.17,24.77l-2.23,2a1.24,1.24,0,0,1-1.75-.08l0-.05,2.67-2.41h0l0,0h0c.28-.2.84,0,1.28.5Z"/><polygon class="cls-3" points="27.22 28.89 26.71 29.35 25.04 27.52 25.55 27.06 27.22 28.89"/><path class="cls-3" d="M30.53,25.9l0,0,0,0Z"/><path class="cls-3" d="M28.34,30.57a1.34,1.34,0,0,1-.43,1,1.32,1.32,0,0,1-1.85-.09L22.86,28a1.32,1.32,0,0,1-.22-1.45l.1-.17a1.57,1.57,0,0,1,.21-.24,1.31,1.31,0,0,1,1.85.09l.75.83,1.67,1.83.78.86a.76.76,0,0,1,.11.14A1.32,1.32,0,0,1,28.34,30.57Z"/><path class="cls-7" d="M28.25,30.48a.49.49,0,0,1-.08.39,1.07,1.07,0,0,1-.2.23A1.3,1.3,0,0,1,26.12,31l-3.2-3.51a1.26,1.26,0,0,1-.31-.62.47.47,0,0,1,.07-.38h0a2.31,2.31,0,0,1,.2-.24,1.38,1.38,0,0,1,.89-.34,1.3,1.3,0,0,1,1,.43l.76.83L27.16,29l.78.86a.76.76,0,0,1,.11.14A1.22,1.22,0,0,1,28.25,30.48Z"/><path class="cls-7" d="M27.94,29.87h0a.23.23,0,0,1,0,.29l-.09.09A1.32,1.32,0,0,1,26,30.16l-3.2-3.51h0a.2.2,0,0,1,0-.28l.09-.1a1.38,1.38,0,0,1,.89-.34,1.3,1.3,0,0,1,1,.43l.76.83L27.16,29Z"/><polygon class="cls-3" points="6.17 24.07 6.18 24.08 6.17 24.07 6.17 24.07"/><path class="cls-3" d="M4.51,25.9a0,0,0,0,0,0,0h0l0,0h0l3.24,2.93,1.67-1.83-.4-.36-.2-.18L6.22,24.11h0l0,0h0c-.28-.19-.83,0-1.27.51l0,.05a2.16,2.16,0,0,0-.33.5A.75.75,0,0,0,4.51,25.9Z"/><path class="cls-7" d="M4.51,25.27a.43.43,0,0,0,.09.24l0,0v0h0L7,27.68a1.23,1.23,0,0,0,1.74-.09A1.33,1.33,0,0,0,9,27.17a.49.49,0,0,0-.13-.51h0L6.19,24.25h0l0,0h0c-.28-.2-.84,0-1.28.5l0,.05A1.84,1.84,0,0,0,4.51,25.27Z"/><path class="cls-7" d="M4.86,24.77l2.24,2a1.23,1.23,0,0,0,1.74-.08l0-.05L6.22,24.25h0l0,0h0c-.28-.2-.83,0-1.27.5Z"/><polygon class="cls-3" points="7.81 28.89 8.32 29.35 9.99 27.52 9.48 27.06 7.81 28.89"/><path class="cls-3" d="M4.51,25.9l0,0a0,0,0,0,1,0,0Z"/><path class="cls-3" d="M6.69,30.57a1.34,1.34,0,0,0,.43,1A1.32,1.32,0,0,0,9,31.51L12.17,28a1.32,1.32,0,0,0,.22-1.45,1,1,0,0,0-.1-.17,2.31,2.31,0,0,0-.2-.24,1.38,1.38,0,0,0-.89-.34,1.3,1.3,0,0,0-1,.43l-.76.83L7.81,28.89,7,29.75a.76.76,0,0,0-.11.14A1.32,1.32,0,0,0,6.69,30.57Z"/><path class="cls-7" d="M6.78,30.48a.49.49,0,0,0,.08.39,1.43,1.43,0,0,0,.2.23A1.3,1.3,0,0,0,8.91,31l3.2-3.51a1.26,1.26,0,0,0,.31-.62.47.47,0,0,0-.07-.38h0a1.5,1.5,0,0,0-.2-.24,1.35,1.35,0,0,0-.88-.34,1.32,1.32,0,0,0-1,.43l-.76.83L7.87,29l-.77.86A.53.53,0,0,0,7,30,1.39,1.39,0,0,0,6.78,30.48Z"/><path class="cls-7" d="M7.1,29.87h0a.21.21,0,0,0,0,.29l.09.09A1.32,1.32,0,0,0,9,30.16l3.21-3.51h0a.21.21,0,0,0,0-.28l-.09-.1a1.35,1.35,0,0,0-.88-.34,1.32,1.32,0,0,0-1,.43l-.76.83L7.87,29Z"/><path class="cls-5" d="M22.13,27.24a7,7,0,0,1,5.14,6.2.48.48,0,0,1-.48.52H8.38a.48.48,0,0,1-.47-.52A7,7,0,0,1,13,27.25c-3.49-1-5.89-3.37-5.89-7.38,0-5.59-1.69-12.25,10.43-12.25C28.93,7.62,28,14.28,28,19.87,28,23.86,25.59,26.22,22.13,27.24Z"/><path class="cls-8" d="M27.6,20A6.52,6.52,0,0,1,25,25.48,7.47,7.47,0,0,1,20.51,27H14.62a7.47,7.47,0,0,1-4.33-1.34A6.48,6.48,0,0,1,7.51,20c0-4.07-1-8.75,4-10.64-.38.23-.6.49-.6.77,0,1,3,1.84,6.59,1.84s6.58-.83,6.58-1.84a.76.76,0,0,0-.28-.54C28.11,11.66,27.6,16.13,27.6,20Z"/><path class="cls-6" d="M27,17.77c0,.06,0,.11,0,.16-.08,2.19-1.74,4.34-3.63,4.34A2.52,2.52,0,0,1,22,21.84a8.93,8.93,0,0,0-2.13-1,8.12,8.12,0,0,0-2.31-.34,8.24,8.24,0,0,0-4.44,1.32,2.54,2.54,0,0,1-1.41.43c-1.89,0-3.56-2.15-3.64-4.34v-.16a3.82,3.82,0,0,1,3.51-4.06h12A3.82,3.82,0,0,1,27,17.77Z"/><path class="cls-3" d="M27,18.1c0,.06,0,.11,0,.17-.08,2.18-1.74,4.33-3.63,4.33A2.59,2.59,0,0,1,22,22.18a8.59,8.59,0,0,0-2.13-1,8.06,8.06,0,0,0-6.75,1,2.61,2.61,0,0,1-1.41.42c-1.89,0-3.56-2.15-3.64-4.33V18.1A3.82,3.82,0,0,1,11.54,14h12A3.82,3.82,0,0,1,27,18.1Z"/><path class="cls-6" d="M27,18.45c0,2.24-1.7,4.5-3.64,4.5A2.6,2.6,0,0,1,22,22.52a8.21,8.21,0,0,0-2.13-1,7.79,7.79,0,0,0-2.31-.35,8.25,8.25,0,0,0-4.44,1.33,2.63,2.63,0,0,1-1.41.43C9.73,23,8,20.69,8,18.45v-.18c.08,2.18,1.75,4.33,3.64,4.33a2.61,2.61,0,0,0,1.41-.42,8.06,8.06,0,0,1,6.75-1,8.59,8.59,0,0,1,2.13,1,2.59,2.59,0,0,0,1.41.42c1.89,0,3.55-2.15,3.63-4.33C27,18.33,27,18.39,27,18.45Z"/><path class="cls-9" d="M11.24,16.84a1.11,1.11,0,0,0-.12.27,2,2,0,0,0,3.78,1.24,1.4,1.4,0,0,0,.06-.28Z"/><path class="cls-9" d="M23.8,16.84l.12.27a2,2,0,0,1-3.78,1.24,2.86,2.86,0,0,1-.07-.28Z"/><path class="cls-8" d="M25.64,34H9a7.11,7.11,0,0,1,1.9-4,7.78,7.78,0,0,1,4-2.07,14.5,14.5,0,0,1,4.46,0,7.25,7.25,0,0,1,3.86,1.67,7.47,7.47,0,0,1,1.46,1.61,5.84,5.84,0,0,1,.84,2.31C25.6,33.62,25.62,33.79,25.64,34Z"/></g><text class="cls-10" transform="translate(48.83 26.59)">MOVIE<tspan class="cls-9" x="63.69" y="0">DOM</tspan></text></g></g></svg>
